<svg width="67" height="67" viewBox="0 0 67 67" fill="none" xmlns="http://www.w3.org/2000/svg">
<mask id="path-1-inside-1_151_120" fill="white">
<path d="M30 56L56 56L56 30C41.6406 30 30 41.6406 30 56Z"/>
</mask>
<path d="M30 56L56 56L30 56ZM56 28C40.536 28 28 40.536 28 56L32 56C32 42.7452 42.7452 32 56 32L56 28ZM56 28C40.536 28 28 40.536 28 56L32 56C32 42.7452 42.7452 32 56 32L56 28ZM56 56L56 30L56 56Z" fill="white" fill-opacity="0.05" mask="url(#path-1-inside-1_151_120)"/>
<line y1="-1" x2="32" y2="-1" transform="matrix(9.93477e-08 1 1 -9.93477e-08 58 0)" stroke="url(#paint0_linear_151_120)" stroke-width="2"/>
<line y1="-1" x2="32" y2="-1" transform="matrix(-1 0 0 1 32 58)" stroke="url(#paint1_linear_151_120)" stroke-width="2"/>
<circle cx="57" cy="57" r="9" stroke="white" stroke-opacity="0.05" stroke-width="2"/>
<line x1="57" y1="53" x2="57" y2="61" stroke="white" stroke-opacity="0.05" stroke-width="2"/>
<line x1="53" y1="57" x2="56" y2="57" stroke="white" stroke-opacity="0.05" stroke-width="2"/>
<line x1="58" y1="57" x2="61" y2="57" stroke="white" stroke-opacity="0.05" stroke-width="2"/>
<defs>
<linearGradient id="paint0_linear_151_120" x1="32" y1="-1" x2="-9.74777e-08" y2="-1" gradientUnits="userSpaceOnUse">
<stop stop-color="white" stop-opacity="0.05"/>
<stop offset="1" stop-color="white" stop-opacity="0"/>
</linearGradient>
<linearGradient id="paint1_linear_151_120" x1="0" y1="0" x2="32" y2="0" gradientUnits="userSpaceOnUse">
<stop stop-color="white" stop-opacity="0.05"/>
<stop offset="1" stop-color="white" stop-opacity="0"/>
</linearGradient>
</defs>
</svg>
