<svg width="67" height="67" viewBox="0 0 67 67" fill="none" xmlns="http://www.w3.org/2000/svg">
<mask id="path-1-inside-1_153_2143" fill="white">
<path d="M37 11L11 11L11 37C25.3594 37 37 25.3594 37 11Z"/>
</mask>
<path d="M37 11L11 11L37 11ZM11 39C26.464 39 39 26.464 39 11L35 11C35 24.2548 24.2548 35 11 35L11 39ZM11 39C26.464 39 39 26.464 39 11L35 11C35 24.2548 24.2548 35 11 35L11 39ZM11 11L11 37L11 11Z" fill="white" fill-opacity="0.05" mask="url(#path-1-inside-1_153_2143)"/>
<line y1="-1" x2="32" y2="-1" transform="matrix(-9.93477e-08 -1 -1 9.93477e-08 9 67)" stroke="url(#paint0_linear_153_2143)" stroke-width="2"/>
<line y1="-1" x2="32" y2="-1" transform="matrix(1 0 0 -1 35 9)" stroke="url(#paint1_linear_153_2143)" stroke-width="2"/>
<circle cx="10" cy="10" r="9" stroke="white" stroke-opacity="0.05" stroke-width="2"/>
<line x1="10" y1="6" x2="10" y2="14" stroke="white" stroke-opacity="0.05" stroke-width="2"/>
<line x1="6" y1="10" x2="9" y2="10" stroke="white" stroke-opacity="0.05" stroke-width="2"/>
<line x1="11" y1="10" x2="14" y2="10" stroke="white" stroke-opacity="0.05" stroke-width="2"/>
<defs>
<linearGradient id="paint0_linear_153_2143" x1="32" y1="-1" x2="-9.74777e-08" y2="-1" gradientUnits="userSpaceOnUse">
<stop stop-color="white" stop-opacity="0.05"/>
<stop offset="1" stop-color="white" stop-opacity="0"/>
</linearGradient>
<linearGradient id="paint1_linear_153_2143" x1="0" y1="0" x2="32" y2="0" gradientUnits="userSpaceOnUse">
<stop stop-color="white" stop-opacity="0.05"/>
<stop offset="1" stop-color="white" stop-opacity="0"/>
</linearGradient>
</defs>
</svg>
